<svg xmlns="http://www.w3.org/2000/svg" xmlns:xlink="http://www.w3.org/1999/xlink" viewBox="0,0,256,256" width="100px" height="100px" fill-rule="nonzero"><g fill="#1e1e1e" fill-rule="nonzero" stroke="none" stroke-width="1" stroke-linecap="butt" stroke-linejoin="miter" stroke-miterlimit="10" stroke-dasharray="" stroke-dashoffset="0" font-family="none" font-weight="none" font-size="none" text-anchor="none" style="mix-blend-mode: normal"><path d="M0,256v-256h256v256z" id="bgRectangle"></path></g><g fill="#ffffff" fill-rule="nonzero" stroke="none" stroke-width="1" stroke-linecap="butt" stroke-linejoin="miter" stroke-miterlimit="10" stroke-dasharray="" stroke-dashoffset="0" font-family="none" font-weight="none" font-size="none" text-anchor="none" style="mix-blend-mode: normal"><g transform="scale(5.33333,5.33333)"><path d="M13,4c-2.74952,0 -5,2.25048 -5,5v31c0,2.74952 2.25048,5 5,5h22c2.74952,0 5,-2.25048 5,-5v-20c0.0051,-0.36064 -0.18438,-0.69608 -0.49587,-0.87789c-0.3115,-0.18181 -0.69676,-0.18181 -1.00825,0c-0.3115,0.18181 -0.50097,0.51725 -0.49587,0.87789v20c0,1.66848 -1.33152,3 -3,3h-22c-1.66848,0 -3,-1.33152 -3,-3v-31c0,-1.66848 1.33152,-3 3,-3h10h1c1.105,0 2,0.895 2,2v2v3c0,2.206 1.794,4 4,4l8.6875,-0.00195c0.01367,0.00028 0.02735,0.00028 0.04102,0c0.10272,0.00001 0.20483,-0.0158 0.30273,-0.04687c0.09443,-0.02959 0.18395,-0.07304 0.26563,-0.12891c0.0013,-0.00065 0.00261,-0.0013 0.00391,-0.00195c0.00151,-0.00105 0.00241,-0.00285 0.00391,-0.00391c0.08045,-0.05625 0.15218,-0.12403 0.21289,-0.20117c0.00065,-0.00065 0.0013,-0.0013 0.00195,-0.00195c0.00035,-0.00044 -0.00035,-0.00151 0,-0.00195c0.06256,-0.07986 0.11261,-0.16876 0.14844,-0.26367c0,-0.00065 0,-0.0013 0,-0.00195c0.00023,-0.00061 -0.00022,-0.00134 0,-0.00195c0.06987,-0.19176 0.07941,-0.40031 0.02734,-0.59766c-0.01357,-0.0555 -0.03186,-0.10973 -0.05469,-0.16211c-0.01519,-0.03336 -0.03856,-0.06276 -0.05469,-0.0957c-0.00569,-0.00962 -0.0096,-0.01985 -0.01563,-0.0293c-0.19057,-0.38118 -0.43521,-0.73719 -0.74414,-1.04492l-9.24023,-9.24219c-0.63456,-0.63569 -1.46529,-1.01552 -2.34766,-1.12305c-0.07853,-0.01984 -0.15361,-0.04883 -0.23828,-0.04883h-0.24219h-3.75781zM16,23c-0.552,0 -1,0.448 -1,1v1c0,0.552 0.448,1 1,1h16c0.552,0 1,-0.448 1,-1v-1c0,-0.552 -0.448,-1 -1,-1zM16,29c-0.552,0 -1,0.448 -1,1v1c0,0.552 0.448,1 1,1h16c0.552,0 1,-0.448 1,-1v-1c0,-0.552 -0.448,-1 -1,-1zM16,35c-0.552,0 -1,0.448 -1,1v1c0,0.552 0.448,1 1,1h10c0.552,0 1,-0.448 1,-1v-1c0,-0.552 -0.448,-1 -1,-1z"></path></g></g></svg>